<?xml version="1.0" standalone="no"?>
<!DOCTYPE svg PUBLIC "-//W3C//DTD SVG 20010904//EN"
 "http://www.w3.org/TR/2001/REC-SVG-20010904/DTD/svg10.dtd">
<svg version="1.0" xmlns="http://www.w3.org/2000/svg"
 width="311.000000pt" height="311.000000pt" viewBox="0 0 311.000000 311.000000"
 preserveAspectRatio="xMidYMid meet">
<metadata>
Created by potrace 1.14, written by Peter Selinger 2001-2017
</metadata>
<g transform="translate(0.000000,311.000000) scale(0.100000,-0.100000)"
fill="#000000" stroke="none">
<path d="M1515 3064 c-8 -20 -15 -42 -15 -48 0 -6 -11 1 -24 16 l-24 27 -45
-49 c-44 -48 -45 -48 -51 -24 l-7 25 -47 -39 c-26 -21 -81 -63 -122 -92 -41
-29 -87 -64 -102 -78 -16 -14 -28 -20 -28 -14 0 20 -37 -4 -100 -63 -30 -29
-60 -50 -67 -48 -13 5 -94 -98 -129 -165 -18 -35 -26 -68 -28 -118 -2 -38 -10
-87 -19 -109 -8 -22 -18 -60 -22 -85 -4 -25 -9 -54 -11 -65 -10 -50 -4 -270
10 -364 9 -58 16 -106 16 -108 0 -2 -7 -3 -15 -3 -33 0 -76 -32 -96 -73 -30
-58 -30 -172 1 -286 35 -128 145 -281 203 -281 34 0 48 -14 53 -51 10 -66 36
-153 59 -198 43 -86 173 -223 289 -307 l28 -20 -26 -50 -26 -50 -98 -23 c-177
-42 -207 -49 -233 -59 -30 -12 -79 -54 -79 -69 0 -5 44 -28 98 -50 451 -191
976 -185 1426 16 36 17 66 35 66 42 0 31 -73 64 -183 85 -45 8 -95 19 -112 24
-16 5 -49 14 -72 20 -36 9 -46 18 -70 63 l-29 53 40 25 c59 36 226 208 263
270 28 47 50 116 77 240 4 20 15 28 53 40 40 12 55 25 99 82 88 115 124 220
125 362 1 122 -46 195 -125 195 -16 0 -24 5 -21 13 2 6 6 28 9 47 17 118 21
181 21 310 -1 157 -14 227 -61 330 -15 30 -32 84 -40 119 -17 81 -42 118 -149
225 -79 79 -106 102 -90 76 14 -23 -17 -6 -129 70 -65 44 -123 80 -127 80 -5
0 -9 -7 -9 -15 0 -17 -35 3 -138 78 -29 21 -56 35 -61 32 -5 -3 -24 13 -41 35
-17 22 -36 40 -41 40 -5 0 -16 -16 -24 -36z"/>
</g>
</svg>
